<svg width="950" height="450" viewBox="0 0 950 450" fill="none" xmlns="http://www.w3.org/2000/svg">
<rect width="950" height="450" rx="24" fill="black"/>
<g clip-path="url(#clip0_17_10)">
<path d="M216.544 258.434V279.563H203.263C200.344 279.563 198.045 278.754 196.367 277.137L176.955 259.066C175.909 257.918 175.168 256.934 174.73 256.113C174.365 255.199 174.182 254.027 174.182 252.598V153.176H198.155V248.203C198.155 248.93 198.337 249.41 198.702 249.645L207.824 258.082C208.188 258.316 208.687 258.434 209.32 258.434H216.544ZM352.459 214.102V279.563H328.45V218.496C328.45 217.77 328.268 217.23 327.903 216.879L318.708 208.723C318.465 208.488 318.027 208.371 317.395 208.371H307.543C306.862 208.371 306.4 208.488 306.157 208.723L296.852 216.879C296.487 217.23 296.305 217.77 296.305 218.496V220.078V279.563H272.333V218.496C272.333 217.77 272.138 217.23 271.749 216.879L262.554 208.723C262.311 208.488 261.873 208.371 261.241 208.371H251.316C250.684 208.371 250.246 208.488 250.003 208.723L240.699 216.879C240.334 217.23 240.151 217.77 240.151 218.496V279.563H216.179V187.664H240.151V195.363L245.807 190.09C247.485 188.473 249.784 187.664 252.703 187.664H267.115C269.961 187.664 272.248 188.473 273.975 190.09L287.731 202.711L301.961 190.09C303.761 188.473 306.059 187.664 308.857 187.664H323.342C326.139 187.664 328.402 188.473 330.129 190.09L349.576 207.809C350.622 208.723 351.364 209.648 351.802 210.586C352.24 211.5 352.459 212.672 352.459 214.102Z" fill="url(#paint0_linear_17_10)"/>
</g>
<path d="M483.159 220.733L462.108 222.028C461.748 220.229 460.974 218.61 459.787 217.17C458.599 215.695 457.034 214.526 455.091 213.662C453.184 212.762 450.899 212.312 448.236 212.312C444.673 212.312 441.669 213.068 439.222 214.58C436.775 216.055 435.551 218.034 435.551 220.517C435.551 222.496 436.343 224.17 437.926 225.537C439.509 226.904 442.226 228.002 446.077 228.83L461.082 231.852C469.143 233.508 475.152 236.17 479.111 239.841C483.069 243.511 485.048 248.333 485.048 254.307C485.048 259.741 483.447 264.509 480.244 268.611C477.078 272.713 472.723 275.916 467.182 278.219C461.676 280.486 455.325 281.619 448.128 281.619C437.152 281.619 428.408 279.334 421.895 274.764C415.418 270.158 411.621 263.897 410.506 255.98L433.122 254.793C433.806 258.139 435.461 260.694 438.088 262.457C440.715 264.185 444.08 265.048 448.182 265.048C452.212 265.048 455.451 264.275 457.898 262.727C460.381 261.144 461.64 259.111 461.676 256.628C461.64 254.541 460.759 252.831 459.031 251.5C457.304 250.133 454.641 249.089 451.043 248.369L436.685 245.509C428.588 243.889 422.561 241.082 418.602 237.088C414.68 233.094 412.719 228.002 412.719 221.812C412.719 216.487 414.158 211.899 417.037 208.048C419.952 204.198 424.036 201.229 429.29 199.142C434.58 197.055 440.769 196.011 447.858 196.011C458.33 196.011 466.57 198.224 472.58 202.651C478.625 207.077 482.152 213.104 483.159 220.733ZM552.695 244.699V197.091H575.69V280H553.613V264.94H552.749C550.878 269.798 547.765 273.703 543.411 276.653C539.093 279.604 533.821 281.08 527.596 281.08C522.054 281.08 517.178 279.82 512.968 277.301C508.758 274.782 505.465 271.202 503.09 266.56C500.751 261.918 499.564 256.358 499.528 249.881V197.091H522.522V245.778C522.558 250.672 523.871 254.541 526.462 257.384C529.053 260.226 532.526 261.648 536.88 261.648C539.651 261.648 542.242 261.018 544.653 259.759C547.064 258.463 549.007 256.556 550.482 254.037C551.994 251.518 552.731 248.405 552.695 244.699ZM594.082 280V197.091H617.077V280H594.082ZM605.634 186.403C602.215 186.403 599.282 185.27 596.835 183.003C594.424 180.7 593.219 177.947 593.219 174.744C593.219 171.578 594.424 168.861 596.835 166.594C599.282 164.291 602.215 163.139 605.634 163.139C609.052 163.139 611.967 164.291 614.378 166.594C616.825 168.861 618.048 171.578 618.048 174.744C618.048 177.947 616.825 180.7 614.378 183.003C611.967 185.27 609.052 186.403 605.634 186.403ZM679.596 197.091V214.364H629.667V197.091H679.596ZM641.002 177.227H663.996V254.523C663.996 256.646 664.32 258.301 664.968 259.489C665.616 260.64 666.515 261.45 667.667 261.918C668.854 262.385 670.222 262.619 671.769 262.619C672.849 262.619 673.928 262.529 675.008 262.349C676.087 262.134 676.915 261.972 677.491 261.864L681.107 278.974C679.956 279.334 678.336 279.748 676.249 280.216C674.162 280.72 671.625 281.026 668.638 281.134C663.097 281.349 658.239 280.612 654.065 278.92C649.926 277.229 646.706 274.602 644.403 271.04C642.1 267.477 640.966 262.979 641.002 257.545V177.227ZM731.468 281.619C722.94 281.619 715.599 279.892 709.445 276.438C703.328 272.947 698.614 268.017 695.303 261.648C691.993 255.242 690.337 247.668 690.337 238.923C690.337 230.395 691.993 222.91 695.303 216.469C698.614 210.027 703.274 205.008 709.283 201.409C715.329 197.811 722.418 196.011 730.55 196.011C736.02 196.011 741.112 196.893 745.826 198.656C750.576 200.384 754.714 202.992 758.241 206.483C761.803 209.973 764.574 214.364 766.553 219.653C768.532 224.907 769.522 231.061 769.522 238.114V244.429H699.513V230.179H747.877C747.877 226.868 747.157 223.936 745.718 221.381C744.279 218.826 742.281 216.829 739.727 215.389C737.208 213.914 734.275 213.176 730.928 213.176C727.438 213.176 724.343 213.986 721.644 215.605C718.981 217.188 716.894 219.33 715.383 222.028C713.871 224.691 713.098 227.66 713.062 230.935V244.483C713.062 248.585 713.817 252.13 715.329 255.116C716.876 258.103 719.053 260.406 721.86 262.026C724.667 263.645 727.996 264.455 731.846 264.455C734.401 264.455 736.74 264.095 738.863 263.375C740.986 262.655 742.803 261.576 744.315 260.136C745.826 258.697 746.978 256.934 747.769 254.847L769.036 256.25C767.957 261.36 765.744 265.822 762.397 269.636C759.086 273.415 754.804 276.366 749.55 278.489C744.333 280.576 738.305 281.619 731.468 281.619Z" fill="url(#paint1_linear_17_10)"/>
<defs>
<linearGradient id="paint0_linear_17_10" x1="224.343" y1="148.295" x2="284.566" y2="258.39" gradientUnits="userSpaceOnUse">
<stop stop-color="white"/>
<stop offset="1" stop-color="#8E8E8E"/>
</linearGradient>
<linearGradient id="paint1_linear_17_10" x1="566.374" y1="83.7907" x2="500.907" y2="216.344" gradientUnits="userSpaceOnUse">
<stop stop-color="white"/>
<stop offset="1" stop-color="#8E8E8E"/>
</linearGradient>
<clipPath id="clip0_17_10">
<rect width="178.787" height="126.562" fill="white" transform="translate(174 153)"/>
</clipPath>
</defs>
</svg>
